<?xml version="1.0" encoding="UTF-8"?>
<svg id="_레이어_1" data-name="레이어 1" xmlns="http://www.w3.org/2000/svg" xmlns:xlink="http://www.w3.org/1999/xlink" viewBox="0 0 950 350">
  <defs>
    <style>
      .cls-1 {
        fill: #655dbe;
      }

      .cls-2 {
        fill: #f3f5f9;
      }

      .cls-3 {
        clip-path: url(#clippath);
      }

      .cls-4 {
        fill: none;
      }
    </style>
    <clipPath id="clippath">
      <rect class="cls-4" x="28" y="164" width="359" height="186"/>
    </clipPath>
  </defs>
  <rect class="cls-1" width="950" height="350"/>
  <g>
    <path class="cls-2" d="m488.77,122.35v11.87h-13.39v2.14c0,1.06-.06,2.09-.17,3.1-.12,1.01-.29,1.98-.52,2.9l15.32,9.59-7.04,9.87-14.01-9.04c-2.07,2.16-4.6,3.99-7.59,5.49-2.99,1.5-6.37,2.68-10.14,3.55l-5.45-10.42c2.3-.41,4.39-1.05,6.28-1.9,1.89-.85,3.5-1.91,4.83-3.17,1.33-1.26,2.37-2.74,3.1-4.42.74-1.68,1.1-3.55,1.1-5.62v-2.07h-13.39v-11.87h41.05Zm-28.01,43.75v-6.83h14.28v6.83h14.7v11.8h-43.06v-11.8h14.08Zm45.95,13.25h-14.28v-58.37h14.28v58.37Z"/>
    <path class="cls-2" d="m514.64,145.88h22.7v-5.52h14.28v5.52h22.7v10.49h-59.68v-10.49Zm38.02-25.6v1.45c0,1.79-.32,3.54-.97,5.24l20.98,6.83-4.97,9.87-23.74-7.8c-2.81,1.89-6.21,3.46-10.21,4.73-4,1.27-8.51,2.29-13.52,3.07l-4.48-10.07c8-1.38,13.76-3.06,17.28-5.04,3.52-1.98,5.28-4.28,5.28-6.9v-1.38h14.35Zm-8.14,61.82c-4.37,0-8.23-.21-11.59-.62-3.36-.41-6.2-1.09-8.52-2.04-2.32-.94-4.08-2.17-5.28-3.69-1.2-1.52-1.79-3.38-1.79-5.59s.6-4.06,1.79-5.55c1.2-1.49,2.96-2.71,5.28-3.66,2.32-.94,5.16-1.62,8.52-2.04,3.36-.41,7.22-.62,11.59-.62s8.18.21,11.56.62,6.23,1.09,8.56,2.04c2.32.94,4.08,2.16,5.28,3.66,1.2,1.5,1.79,3.35,1.79,5.55s-.6,4.07-1.79,5.59c-1.2,1.52-2.96,2.75-5.28,3.69-2.32.94-5.17,1.62-8.56,2.04s-7.23.62-11.56.62Zm0-9.52c4.05,0,7.21-.2,9.49-.59,2.28-.39,3.42-1,3.42-1.83s-1.14-1.44-3.42-1.83c-2.28-.39-5.44-.59-9.49-.59s-7.21.2-9.49.59-3.42,1-3.42,1.83,1.14,1.44,3.42,1.83,5.44.59,9.49.59Z"/>
    <path class="cls-2" d="m606.48,123.04h12.7v9.38h-39.67v-9.38h12.7v-4.69h14.28v4.69Zm-7.11,11.32c3.22,0,5.98.24,8.28.72,2.3.48,4.19,1.16,5.66,2.04,1.47.87,2.54,1.93,3.21,3.17.67,1.24,1,2.62,1,4.14s-.33,2.97-1,4.21c-.67,1.24-1.74,2.3-3.21,3.17-1.47.87-3.36,1.54-5.66,2-2.3.46-5.06.69-8.28.69s-6.04-.23-8.31-.69c-2.28-.46-4.15-1.13-5.62-2-1.47-.87-2.54-1.93-3.21-3.17-.67-1.24-1-2.64-1-4.21s.33-2.9,1-4.14c.67-1.24,1.74-2.3,3.21-3.17,1.47-.87,3.35-1.55,5.62-2.04,2.28-.48,5.05-.72,8.31-.72Zm-.41,22.84v2.62h23.87v-2.62h14.28v23.53h-52.44v-23.53h14.28Zm.41-15.53c-1.38,0-2.57.21-3.55.62-.99.41-1.48,1.13-1.48,2.14s.49,1.74,1.48,2.17c.99.44,2.17.66,3.55.66s2.56-.22,3.55-.66c.99-.44,1.48-1.16,1.48-2.17s-.51-1.72-1.52-2.14c-1.01-.41-2.19-.62-3.52-.62Zm23.46,29.95v-2.69h-23.87v2.69h23.87Zm14.28-28.63v11.8h-14.28v-33.81h14.28v10.14h6v11.87h-6Z"/>
    <path class="cls-2" d="m662.3,122.35v44.44h22.22v11.87h-36.5v-56.3h14.28Zm43.12,56.99h-14.28v-58.37h14.28v58.37Z"/>
    <path class="cls-2" d="m749.38,122.35v11.87h-20.84v32.57h21.53v11.87h-35.81v-56.3h35.12Zm20.22,18.84h6v11.87h-6v26.29h-14.28v-58.37h14.28v20.22Z"/>
  </g>
  <g>
    <path class="cls-2" d="m459.59,211.01c0,1.66-.17,3.08-.52,4.27-.34,1.19-.8,2.16-1.38,2.92-.57.76-1.24,1.31-1.99,1.67-.75.35-1.53.53-2.32.53s-1.61-.18-2.36-.53c-.74-.35-1.4-.91-1.98-1.67s-1.03-1.73-1.37-2.92c-.34-1.19-.51-2.61-.51-4.27s.17-3.07.51-4.25c.34-1.18.79-2.15,1.37-2.91.58-.76,1.23-1.32,1.98-1.68.74-.36,1.53-.54,2.36-.54s1.57.18,2.32.54c.75.36,1.42.92,1.99,1.68.58.76,1.04,1.73,1.38,2.91.35,1.18.52,2.6.52,4.25Zm-10.12,0c0,1.4.1,2.57.31,3.53.21.96.49,1.73.84,2.31.35.58.77,1,1.24,1.27.47.26.98.39,1.52.39s1.02-.13,1.5-.38.89-.67,1.24-1.26c.35-.59.63-1.36.84-2.32.21-.96.31-2.14.31-3.55s-.1-2.57-.31-3.52c-.21-.95-.49-1.72-.84-2.3s-.77-1-1.24-1.27c-.48-.26-.97-.39-1.5-.39s-1.04.13-1.52.39c-.48.26-.89.68-1.24,1.27s-.63,1.35-.84,2.31c-.21.96-.31,2.13-.31,3.53Zm15.23-2.07h2.69v1.89h-2.69v9.57h-2.3v-19h2.3v7.54Z"/>
    <path class="cls-2" d="m469.18,201.62h13v1.89h-5.45v2.37c0,.51-.06.99-.18,1.45l5.89,3.59-1.22,1.59-5.57-3.4c-.58.77-1.38,1.42-2.38,1.97-1,.54-2.18,1-3.53,1.37l-1.01-1.68c.83-.2,1.59-.44,2.29-.72.7-.28,1.3-.62,1.8-1,.51-.38.9-.84,1.17-1.36.28-.52.41-1.13.41-1.82v-2.35h-5.22v-1.89Zm15.53,19.23v-4.9h-14.26v-1.89h16.56v6.79h-2.3Zm2.3-19.46v11.41h-2.3v-11.41h2.3Z"/>
    <path class="cls-2" d="m495.01,201.85h11.48v1.89h-2.12v14.54h2.12v1.89h-11.48v-1.89h2.12v-14.54h-2.12v-1.89Zm4.42,16.42h2.64v-14.54h-2.64v14.54Zm8.76,2.12v-9.34l-2.42.83v-1.79l2.42-.83v-7.87h2.3v19h-2.3Zm6.97,0h-2.3v-19h2.3v19Z"/>
    <path class="cls-2" d="m530.43,211.01c0,1.66-.17,3.08-.52,4.27-.35,1.19-.81,2.16-1.4,2.92-.59.76-1.28,1.31-2.06,1.67-.78.35-1.6.53-2.46.53s-1.7-.18-2.48-.53c-.78-.35-1.47-.91-2.06-1.67-.59-.76-1.05-1.73-1.39-2.92-.34-1.19-.51-2.61-.51-4.27s.17-3.07.51-4.25c.34-1.18.8-2.15,1.39-2.91.59-.76,1.28-1.32,2.06-1.68.78-.36,1.61-.54,2.48-.54s1.68.18,2.46.54c.78.36,1.47.92,2.06,1.68.59.76,1.06,1.73,1.4,2.91.34,1.18.52,2.6.52,4.25Zm-10.58,0c0,1.4.1,2.57.31,3.53.21.96.5,1.73.86,2.31.37.58.8,1,1.31,1.27.51.26,1.06.39,1.66.39s1.13-.13,1.63-.38.94-.67,1.31-1.26c.37-.59.66-1.36.86-2.32.21-.96.31-2.14.31-3.55s-.1-2.57-.31-3.52c-.21-.95-.5-1.72-.86-2.3-.37-.58-.81-1-1.31-1.27-.51-.26-1.05-.39-1.63-.39s-1.15.13-1.66.39c-.51.26-.94.68-1.31,1.27s-.66,1.35-.86,2.31c-.21.96-.31,2.13-.31,3.53Zm15.92,9.38h-2.3v-19h2.3v19Z"/>
    <path class="cls-2" d="m538.87,201.85h13v1.89h-5.45v6.14c0,.64-.03,1.25-.09,1.82-.06.57-.16,1.11-.3,1.63l6.44,4.85-1.17,1.75-6.07-4.55c-.54,1-1.27,1.88-2.21,2.66-.94.77-2.14,1.46-3.61,2.06l-1.06-1.84c1.06-.46,1.95-.93,2.68-1.42.73-.48,1.32-1.04,1.78-1.68.46-.64.79-1.38.99-2.23.2-.85.3-1.88.3-3.07v-6.12h-5.22v-1.89Zm17.83,18.54h-2.3v-19h2.3v19Z"/>
    <path class="cls-2" d="m559.8,210.27h18.51v1.89h-18.51v-1.89Zm15.09,5.93v-1.08h-13.96v-1.79h16.26v4.67h-13.96v1.06h14.19v1.79h-16.49v-4.65h13.96Zm-.23-11.71v-1.1h-13.5v-1.79h15.8v4.69h-13.5v1.08h13.73v1.79h-16.03v-4.67h13.5Z"/>
    <path class="cls-2" d="m594.58,221.1v-4.35h-8.1v-1.89h18.52v1.89h-8.12v4.35h-2.3Zm6.99-8.35v-9.02h-13.96v-1.89h16.26v10.9h-2.3Z"/>
    <path class="cls-2" d="m607.18,202.08h5.22v-1.79h2.3v1.79h5.24v1.89h-12.77v-1.89Zm6.37,3.15c.92,0,1.75.1,2.48.3s1.36.49,1.89.87l5.24-.99v-4.03h2.3v14.88h-2.3v-5.24l-4.65.9c-.49.57-1.16.99-2.01,1.28-.85.28-1.84.43-2.96.43-.87,0-1.67-.09-2.38-.26-.71-.18-1.32-.44-1.83-.79s-.9-.79-1.17-1.31c-.28-.52-.41-1.13-.41-1.82s.14-1.27.41-1.79c.28-.52.67-.96,1.17-1.32s1.12-.63,1.83-.82c.71-.18,1.51-.28,2.38-.28Zm-2.35,9.75v3.98h14.49v1.89h-16.79v-5.86h2.3Zm2.35-7.87c-1.04,0-1.89.19-2.53.56-.64.38-.97.96-.97,1.76s.32,1.36.97,1.74c.64.38,1.49.56,2.53.56s1.88-.19,2.54-.56,1-.96,1-1.74c0-.4-.09-.74-.28-1.04-.18-.29-.44-.53-.76-.72-.32-.19-.7-.33-1.13-.43-.43-.09-.89-.14-1.38-.14Zm5.84,2.32c0,.08,0,.15-.01.22,0,.07-.01.14-.01.22l3.79-.71v-1.89l-4,.78c.08.21.13.43.17.66.04.22.06.46.06.72Z"/>
    <path class="cls-2" d="m628.11,203.23h5.22v-2.48h2.3v2.48h5.24v1.89h-12.77v-1.89Zm12.21,10.49c0,1.21-.16,2.24-.48,3.09s-.75,1.54-1.29,2.07c-.54.53-1.16.91-1.86,1.15s-1.44.36-2.21.36-1.52-.12-2.22-.36c-.7-.24-1.31-.62-1.84-1.15-.53-.53-.95-1.22-1.26-2.07s-.47-1.88-.47-3.09.16-2.24.47-3.08c.31-.84.74-1.53,1.26-2.06.53-.53,1.14-.92,1.84-1.16.7-.25,1.44-.37,2.22-.37s1.5.12,2.21.37,1.33.63,1.86,1.16c.54.53.97,1.22,1.29,2.06.32.84.48,1.87.48,3.08Zm-9.34,0c0,1.58.31,2.77.94,3.58.63.8,1.48,1.21,2.55,1.21s1.87-.4,2.53-1.2c.66-.8.99-2,.99-3.61s-.33-2.77-.99-3.57c-.66-.8-1.5-1.2-2.53-1.2s-1.92.4-2.55,1.21-.94,2-.94,3.58Zm14.72-4.78h2.69v1.89h-2.69v9.57h-2.3v-19h2.3v7.54Z"/>
    <path class="cls-2" d="m650.19,201.85h13v1.89h-5.45v6.14c0,.64-.03,1.25-.09,1.82s-.16,1.11-.3,1.63l6.44,4.85-1.17,1.75-6.07-4.55c-.54,1-1.27,1.88-2.21,2.66-.94.77-2.14,1.46-3.61,2.06l-1.06-1.84c1.06-.46,1.95-.93,2.68-1.42.73-.48,1.32-1.04,1.78-1.68.46-.64.79-1.38.99-2.23.2-.85.3-1.88.3-3.07v-6.12h-5.22v-1.89Zm17.83,18.54h-2.3v-19h2.3v19Z"/>
    <path class="cls-2" d="m693.8,208.66h-6.76v2.18h8.12v1.89h-18.52v-1.89h8.1v-2.18h-6.74v-7.04h15.8v7.04Zm-6.62,5.17v.74c0,.67-.1,1.29-.3,1.84l8.17,2.76-.94,1.7-8.3-2.83c-.69.69-1.69,1.28-2.99,1.76-1.3.48-3,.88-5.11,1.18l-.87-1.89c1.58-.21,2.89-.46,3.92-.75,1.04-.28,1.86-.61,2.47-.99.61-.38,1.04-.8,1.28-1.26.24-.47.36-.99.36-1.55v-.71h2.32Zm-6.88-10.33v3.27h11.2v-3.27h-11.2Z"/>
    <path class="cls-2" d="m697.34,202.08h4.88v-1.79h2.3v1.79h4.9v1.89h-12.08v-1.89Zm6.03,3.15c.83,0,1.58.08,2.25.25s1.25.42,1.74.75c.48.33.85.74,1.12,1.22.26.48.39,1.03.39,1.64s-.13,1.18-.39,1.67c-.26.48-.63.89-1.12,1.21-.48.32-1.06.56-1.74.72s-1.43.24-2.25.24-1.55-.08-2.22-.24-1.24-.4-1.72-.72c-.48-.32-.86-.72-1.12-1.21-.26-.48-.39-1.04-.39-1.67s.13-1.16.39-1.64c.26-.48.63-.89,1.12-1.22.48-.33,1.06-.58,1.72-.75s1.41-.25,2.22-.25Zm11.75,9.09c0,1.01-.16,1.93-.48,2.76l4.78,1.86-.97,1.73-4.88-1.91c-.57.64-1.33,1.21-2.29,1.69-.96.48-2.17.89-3.65,1.23l-1.1-1.72c1.83-.34,3.21-.82,4.16-1.45l-5.15-1.59c-.51.8-1.3,1.47-2.37,2.02-1.07.55-2.46,1.01-4.16,1.38l-1.1-1.79c1.18-.22,2.16-.46,2.94-.75s1.4-.6,1.86-.94c.46-.34.78-.72.97-1.14.18-.41.28-.87.28-1.38v-.28h2.3v.28c0,.14,0,.27-.01.4,0,.13-.02.26-.04.38l6,1.86c.21-.38.37-.8.46-1.24.09-.44.14-.91.14-1.4v-.28h2.3v.28Zm-11.75-7.2c-.92,0-1.68.16-2.27.47s-.89.82-.89,1.51.3,1.17.89,1.48c.59.31,1.35.47,2.27.47.46,0,.88-.04,1.26-.12.38-.08.72-.2,1.01-.36.29-.16.52-.36.68-.61.16-.25.24-.54.24-.87s-.08-.63-.25-.89c-.17-.25-.4-.46-.69-.62-.29-.16-.63-.28-1.02-.36-.39-.08-.8-.12-1.23-.12Zm7.68,5.68v-11.41h2.3v4.81l2.6-.9v-3.91h2.3v11.41h-2.3v-5.59l-2.6.9v4.69h-2.3Z"/>
    <path class="cls-2" d="m737.93,220.39h-2.3v-9.59l-3.52,1.24c-.08,1.47-.3,2.73-.67,3.78-.37,1.05-.84,1.92-1.4,2.6-.57.68-1.21,1.18-1.92,1.49s-1.45.47-2.2.47c-.83,0-1.61-.18-2.36-.53-.74-.35-1.4-.91-1.98-1.67-.58-.76-1.03-1.73-1.37-2.92s-.51-2.61-.51-4.27.17-3.07.51-4.25.79-2.15,1.37-2.91c.57-.76,1.23-1.32,1.98-1.68.74-.36,1.53-.54,2.36-.54.77,0,1.51.17,2.23.49.72.33,1.36.84,1.93,1.54.57.7,1.03,1.59,1.39,2.67s.57,2.38.63,3.9l3.52-1.24v-7.59h2.3v19Zm-15.92-9.38c0,1.4.1,2.57.31,3.53.21.96.49,1.73.84,2.31.35.58.77,1,1.24,1.27.47.26.98.39,1.52.39s1.02-.13,1.5-.38c.47-.25.89-.67,1.24-1.26.35-.59.63-1.36.84-2.32.21-.96.31-2.14.31-3.55s-.1-2.57-.31-3.52c-.21-.95-.49-1.72-.84-2.3-.35-.58-.77-1-1.24-1.27-.48-.26-.97-.39-1.5-.39s-1.04.13-1.52.39c-.48.26-.89.68-1.24,1.27s-.63,1.35-.84,2.31-.31,2.13-.31,3.53Z"/>
    <path class="cls-2" d="m741.04,218.5h3.73v-5.22c-.92-.58-1.62-1.31-2.1-2.2-.48-.88-.72-1.86-.72-2.93,0-.95.2-1.83.59-2.62.39-.8.95-1.49,1.67-2.07s1.59-1.04,2.62-1.37c1.03-.33,2.18-.5,3.47-.5s2.35.17,3.38.5c1.03.33,1.91.79,2.64,1.37s1.31,1.27,1.72,2.07c.41.8.62,1.67.62,2.62,0,1.07-.25,2.05-.74,2.93-.49.88-1.2,1.61-2.12,2.2v5.22h3.75v1.89h-18.52v-1.89Zm9.25-5.68c.98,0,1.85-.13,2.6-.38.75-.25,1.38-.59,1.9-1.01s.9-.92,1.17-1.48c.27-.57.4-1.17.4-1.79s-.13-1.23-.4-1.79c-.27-.57-.66-1.06-1.17-1.48-.51-.42-1.15-.76-1.9-1.01-.75-.25-1.62-.38-2.6-.38s-1.85.13-2.6.38-1.38.59-1.9,1.01c-.51.42-.9.92-1.16,1.48-.26.57-.39,1.17-.39,1.79s.13,1.23.39,1.79c.26.57.65,1.06,1.16,1.48s1.15.76,1.9,1.01,1.62.38,2.6.38Zm0,1.89c-1.21,0-2.28-.14-3.22-.41v4.21h6.44v-4.21c-.97.28-2.04.41-3.22.41Z"/>
    <path class="cls-2" d="m765.49,220.53h-2.53v-2.46h2.53v2.46Z"/>
    <path class="cls-2" d="m772.04,220.53h-2.53v-2.46h2.53v2.46Z"/>
    <path class="cls-2" d="m778.6,220.53h-2.53v-2.46h2.53v2.46Z"/>
  </g>
  <g class="cls-3">
    <image width="950" height="950" transform="translate(78 171) scale(.27)" xlink:href="../../../../../Downloads/제목을-입력해주세요_-003.png"/>
  </g>
</svg>