<?xml version="1.0" encoding="UTF-8"?>
<svg id="_레이어_1" data-name="레이어 1" xmlns="http://www.w3.org/2000/svg" viewBox="0 0 950 350">
  <defs>
    <style>
      .cls-1 {
        fill: none;
        stroke: #ff6759;
        stroke-linecap: round;
        stroke-linejoin: round;
        stroke-width: 13px;
      }

      .cls-2 {
        fill: #d8e0f0;
      }

      .cls-3 {
        fill: #4d4d80;
      }

      .cls-4 {
        fill: #e8ebef;
      }
    </style>
  </defs>
  <g>
    <g>
      <path class="cls-3" d="m360.76,187.34v10.9h-12.3v1.97c0,.97-.05,1.92-.16,2.85-.11.93-.26,1.82-.48,2.66l14.07,8.81-6.47,9.07-12.87-8.31c-1.9,1.99-4.23,3.67-6.97,5.04-2.75,1.37-5.85,2.46-9.32,3.27l-5.01-9.57c2.11-.38,4.04-.96,5.77-1.74,1.73-.78,3.21-1.75,4.44-2.92,1.23-1.16,2.18-2.51,2.85-4.06.68-1.54,1.01-3.26,1.01-5.17v-1.9h-12.3v-10.9h37.72Zm-25.74,40.2v-6.28h13.12v6.28h13.5v10.84h-39.56v-10.84h12.93Zm42.22,12.17h-13.12v-53.64h13.12v53.64Z"/>
      <path class="cls-3" d="m384.53,208.96h20.86v-5.07h13.12v5.07h20.86v9.64h-54.84v-9.64Zm34.93-23.52v1.33c0,1.65-.3,3.25-.89,4.82l19.27,6.28-4.56,9.07-21.81-7.16c-2.58,1.73-5.71,3.18-9.38,4.34-3.68,1.16-7.82,2.1-12.43,2.82l-4.12-9.26c7.35-1.27,12.65-2.81,15.88-4.63,3.23-1.82,4.85-3.93,4.85-6.34v-1.27h13.19Zm-7.48,56.81c-4.02,0-7.57-.19-10.65-.57-3.09-.38-5.7-1-7.83-1.87-2.13-.87-3.75-2-4.85-3.39-1.1-1.39-1.65-3.11-1.65-5.14s.55-3.73,1.65-5.1c1.1-1.37,2.72-2.49,4.85-3.36,2.13-.87,4.74-1.49,7.83-1.87,3.08-.38,6.64-.57,10.65-.57s7.51.19,10.62.57c3.11.38,5.73,1,7.86,1.87,2.13.87,3.75,1.99,4.85,3.36,1.1,1.37,1.65,3.08,1.65,5.1s-.55,3.74-1.65,5.14c-1.1,1.39-2.72,2.53-4.85,3.39-2.13.87-4.75,1.49-7.86,1.87-3.11.38-6.65.57-10.62.57Zm0-8.75c3.72,0,6.63-.18,8.72-.54,2.09-.36,3.14-.92,3.14-1.68s-1.05-1.32-3.14-1.68c-2.09-.36-5-.54-8.72-.54s-6.62.18-8.72.54c-2.09.36-3.14.92-3.14,1.68s1.05,1.32,3.14,1.68c2.09.36,5,.54,8.72.54Z"/>
      <path class="cls-3" d="m468.92,187.97h11.67v8.62h-36.45v-8.62h11.67v-4.31h13.12v4.31Zm-6.53,10.4c2.96,0,5.49.22,7.61.67,2.11.44,3.85,1.07,5.2,1.87,1.35.8,2.33,1.78,2.95,2.92.61,1.14.92,2.41.92,3.8s-.31,2.73-.92,3.87c-.61,1.14-1.6,2.11-2.95,2.92-1.35.8-3.09,1.42-5.2,1.84-2.11.42-4.65.63-7.61.63s-5.55-.21-7.64-.63c-2.09-.42-3.81-1.04-5.17-1.84-1.35-.8-2.34-1.77-2.95-2.92-.61-1.14-.92-2.43-.92-3.87s.31-2.66.92-3.8c.61-1.14,1.59-2.11,2.95-2.92,1.35-.8,3.08-1.43,5.17-1.87,2.09-.44,4.64-.67,7.64-.67Zm-.38,20.99v2.41h21.94v-2.41h13.12v21.62h-48.18v-21.62h13.12Zm.38-14.26c-1.27,0-2.36.19-3.26.57-.91.38-1.36,1.04-1.36,1.97s.45,1.6,1.36,2c.91.4,2,.6,3.26.6s2.36-.2,3.27-.6c.91-.4,1.36-1.07,1.36-2s-.46-1.58-1.39-1.97c-.93-.38-2.01-.57-3.23-.57Zm21.56,27.52v-2.47h-21.94v2.47h21.94Zm13.12-26.31v10.84h-13.12v-31.07h13.12v9.32h5.52v10.9h-5.52Z"/>
      <path class="cls-3" d="m520.21,187.34v40.83h20.42v10.91h-33.54v-51.73h13.12Zm39.62,52.37h-13.12v-53.64h13.12v53.64Z"/>
      <path class="cls-3" d="m600.22,187.34v10.9h-19.15v29.92h19.78v10.91h-32.9v-51.73h32.27Zm18.58,17.31h5.52v10.91h-5.52v24.16h-13.12v-53.64h13.12v18.58Z"/>
    </g>
    <g>
      <path class="cls-3" d="m332.95,263.18c0,1.52-.16,2.83-.48,3.92s-.74,1.99-1.27,2.68-1.14,1.21-1.83,1.53-1.4.49-2.13.49-1.48-.16-2.17-.49c-.68-.32-1.29-.83-1.82-1.53s-.95-1.59-1.26-2.68-.46-2.4-.46-3.92.15-2.83.46-3.91.73-1.98,1.26-2.67,1.13-1.21,1.82-1.54c.68-.33,1.41-.5,2.17-.5s1.44.17,2.13.5,1.3.85,1.83,1.54.95,1.59,1.27,2.67.48,2.39.48,3.91Zm-9.3,0c0,1.28.1,2.36.29,3.24.19.88.45,1.59.77,2.12.32.54.7.92,1.14,1.16.44.24.9.36,1.4.36s.94-.12,1.37-.35.82-.62,1.14-1.16c.32-.54.58-1.25.77-2.13.19-.88.29-1.97.29-3.26s-.09-2.36-.29-3.23c-.19-.87-.45-1.58-.77-2.11s-.7-.92-1.14-1.16-.89-.36-1.37-.36-.96.12-1.4.36c-.44.24-.82.63-1.14,1.16s-.58,1.24-.77,2.12c-.19.88-.29,1.96-.29,3.24Zm13.99-1.9h2.47v1.73h-2.47v8.79h-2.11v-17.46h2.11v6.93Z"/>
      <path class="cls-3" d="m341.76,254.56h11.94v1.73h-5.01v2.18c0,.46-.06.91-.17,1.33l5.41,3.3-1.12,1.46-5.11-3.13c-.54.71-1.26,1.31-2.19,1.81s-2,.92-3.24,1.26l-.93-1.54c.76-.18,1.46-.41,2.1-.67.64-.26,1.19-.57,1.66-.92.47-.35.82-.77,1.08-1.25.25-.48.38-1.04.38-1.67v-2.16h-4.8v-1.73Zm14.26,17.67v-4.5h-13.1v-1.73h15.22v6.23h-2.11Zm2.11-17.88v10.48h-2.11v-10.48h2.11Z"/>
      <path class="cls-3" d="m365.49,254.77h10.55v1.73h-1.94v13.36h1.94v1.73h-10.55v-1.73h1.94v-13.36h-1.94v-1.73Zm4.06,15.09h2.43v-13.36h-2.43v13.36Zm8.05,1.94v-8.58l-2.22.76v-1.65l2.22-.76v-7.23h2.11v17.46h-2.11Zm6.4,0h-2.11v-17.46h2.11v17.46Z"/>
      <path class="cls-3" d="m398.04,263.18c0,1.52-.16,2.83-.48,3.92-.32,1.09-.75,1.99-1.29,2.68s-1.17,1.21-1.89,1.53c-.72.32-1.47.49-2.26.49s-1.56-.16-2.28-.49c-.72-.32-1.35-.83-1.89-1.53-.54-.7-.97-1.59-1.28-2.68s-.46-2.4-.46-3.92.15-2.83.46-3.91.74-1.98,1.28-2.67c.54-.7,1.17-1.21,1.89-1.54.72-.33,1.48-.5,2.28-.5s1.54.17,2.26.5c.72.33,1.35.85,1.89,1.54s.97,1.59,1.29,2.67c.32,1.08.48,2.39.48,3.91Zm-9.72,0c0,1.28.1,2.36.29,3.24.19.88.45,1.59.79,2.12.34.54.74.92,1.2,1.16.46.24.97.36,1.52.36s1.04-.12,1.5-.35.87-.62,1.2-1.16c.34-.54.6-1.25.79-2.13.19-.88.29-1.97.29-3.26s-.1-2.36-.29-3.23c-.19-.87-.45-1.58-.79-2.11-.34-.54-.74-.92-1.2-1.16s-.97-.36-1.5-.36-1.06.12-1.52.36c-.47.24-.87.63-1.2,1.16-.34.54-.6,1.24-.79,2.12-.19.88-.29,1.96-.29,3.24Zm14.62,8.62h-2.11v-17.46h2.11v17.46Z"/>
      <path class="cls-3" d="m405.79,254.77h11.94v1.73h-5.01v5.64c0,.59-.03,1.15-.08,1.67-.06.52-.15,1.02-.27,1.5l5.92,4.46-1.08,1.61-5.58-4.18c-.49.92-1.17,1.73-2.03,2.44-.86.71-1.97,1.34-3.32,1.89l-.97-1.69c.97-.42,1.79-.86,2.46-1.3.67-.44,1.21-.96,1.64-1.54s.73-1.27.91-2.05c.18-.78.27-1.72.27-2.82v-5.62h-4.8v-1.73Zm16.38,17.03h-2.11v-17.46h2.11v17.46Z"/>
      <path class="cls-3" d="m425.03,262.5h17.01v1.73h-17.01v-1.73Zm13.86,5.45v-.99h-12.83v-1.65h14.94v4.29h-12.83v.97h13.04v1.65h-15.15v-4.27h12.83Zm-.21-10.76v-1.01h-12.4v-1.65h14.52v4.31h-12.4v.99h12.62v1.65h-14.73v-4.29h12.4Z"/>
      <path class="cls-3" d="m456.98,272.46v-3.99h-7.44v-1.73h17.01v1.73h-7.46v3.99h-2.11Zm6.42-7.67v-8.28h-12.83v-1.73h14.94v10.02h-2.11Z"/>
      <path class="cls-3" d="m468.56,254.98h4.8v-1.65h2.11v1.65h4.82v1.73h-11.73v-1.73Zm5.85,2.9c.85,0,1.61.09,2.28.27.68.18,1.25.45,1.73.8l4.82-.91v-3.7h2.11v13.67h-2.11v-4.82l-4.27.82c-.45.52-1.07.91-1.85,1.17s-1.69.39-2.72.39c-.8,0-1.53-.08-2.19-.24s-1.21-.41-1.68-.73-.82-.73-1.08-1.2c-.25-.48-.38-1.04-.38-1.67s.13-1.17.38-1.65c.25-.48.61-.88,1.08-1.21s1.02-.58,1.68-.75c.66-.17,1.38-.25,2.19-.25Zm-2.16,8.96v3.66h13.31v1.73h-15.43v-5.39h2.11Zm2.16-7.23c-.96,0-1.73.17-2.32.52-.59.34-.89.88-.89,1.62s.3,1.25.89,1.6c.59.35,1.37.52,2.32.52s1.72-.17,2.33-.52c.61-.34.92-.88.92-1.6,0-.37-.08-.68-.25-.95s-.4-.49-.7-.67c-.3-.18-.64-.31-1.04-.39-.39-.08-.82-.13-1.27-.13Zm5.37,2.13c0,.07,0,.14-.01.2,0,.06-.01.13-.01.2l3.49-.66v-1.73l-3.68.72c.07.2.12.4.16.6.03.21.05.43.05.67Z"/>
      <path class="cls-3" d="m487.79,256.04h4.8v-2.28h2.11v2.28h4.82v1.73h-11.73v-1.73Zm11.22,9.64c0,1.11-.15,2.06-.44,2.84-.3.78-.69,1.42-1.18,1.9-.49.49-1.06.84-1.71,1.06-.65.22-1.33.33-2.03.33s-1.4-.11-2.04-.33c-.64-.22-1.21-.57-1.69-1.06-.49-.49-.87-1.12-1.16-1.9-.29-.78-.43-1.73-.43-2.84s.14-2.06.43-2.83c.29-.77.68-1.41,1.16-1.89.49-.49,1.05-.84,1.69-1.07.64-.23,1.32-.34,2.04-.34s1.38.11,2.03.34c.65.23,1.22.58,1.71,1.07.49.49.89,1.12,1.18,1.89.3.78.44,1.72.44,2.83Zm-8.58,0c0,1.45.29,2.55.87,3.29.58.74,1.36,1.11,2.35,1.11s1.72-.37,2.33-1.1c.61-.73.91-1.84.91-3.32s-.3-2.54-.91-3.28c-.61-.73-1.38-1.1-2.33-1.1s-1.77.37-2.35,1.11c-.58.74-.87,1.83-.87,3.29Zm13.53-4.4h2.47v1.73h-2.47v8.79h-2.11v-17.46h2.11v6.93Z"/>
      <path class="cls-3" d="m508.08,254.77h11.94v1.73h-5.01v5.64c0,.59-.03,1.15-.08,1.67-.06.52-.15,1.02-.27,1.5l5.92,4.46-1.08,1.61-5.58-4.18c-.49.92-1.17,1.73-2.03,2.44-.86.71-1.97,1.34-3.32,1.89l-.97-1.69c.97-.42,1.79-.86,2.46-1.3.67-.44,1.21-.96,1.64-1.54s.73-1.27.91-2.05c.18-.78.27-1.72.27-2.82v-5.62h-4.8v-1.73Zm16.38,17.03h-2.11v-17.46h2.11v17.46Z"/>
      <path class="cls-3" d="m548.14,261.02h-6.21v2.01h7.46v1.73h-17.01v-1.73h7.44v-2.01h-6.19v-6.47h14.52v6.47Zm-6.09,4.75v.68c0,.62-.09,1.18-.28,1.69l7.5,2.54-.87,1.56-7.63-2.6c-.63.63-1.55,1.17-2.75,1.62s-2.76.81-4.69,1.09l-.8-1.73c1.45-.2,2.65-.43,3.6-.69.95-.26,1.71-.56,2.27-.91.56-.34.95-.73,1.17-1.16.22-.43.33-.91.33-1.43v-.66h2.13Zm-6.32-9.49v3h10.29v-3h-10.29Z"/>
      <path class="cls-3" d="m551.4,254.98h4.48v-1.65h2.11v1.65h4.5v1.73h-11.09v-1.73Zm5.54,2.9c.76,0,1.45.08,2.07.23s1.15.38,1.6.69c.44.3.79.68,1.03,1.12.24.44.36.95.36,1.51s-.12,1.09-.36,1.53c-.24.44-.58.81-1.03,1.11-.44.29-.98.52-1.6.67-.62.15-1.31.22-2.07.22s-1.43-.07-2.04-.22c-.61-.15-1.14-.37-1.58-.67-.44-.3-.79-.67-1.02-1.11-.24-.44-.36-.95-.36-1.53s.12-1.07.36-1.51c.24-.44.58-.82,1.02-1.12.44-.3.97-.53,1.58-.69.61-.16,1.29-.23,2.04-.23Zm10.8,8.35c0,.93-.15,1.78-.44,2.54l4.4,1.71-.89,1.58-4.48-1.75c-.52.59-1.22,1.11-2.1,1.55-.88.44-2,.82-3.35,1.13l-1.01-1.58c1.68-.31,2.95-.75,3.83-1.33l-4.73-1.46c-.46.73-1.19,1.35-2.18,1.86-.99.51-2.26.93-3.83,1.27l-1.01-1.65c1.08-.2,1.99-.43,2.71-.69.72-.26,1.29-.55,1.71-.87.42-.32.72-.67.89-1.05.17-.38.25-.8.25-1.27v-.25h2.11v.25c0,.13,0,.25-.01.37,0,.12-.02.24-.03.35l5.52,1.71c.2-.35.34-.73.42-1.14.08-.41.13-.84.13-1.29v-.25h2.11v.25Zm-10.8-6.62c-.84,0-1.54.14-2.08.43-.54.29-.81.75-.81,1.38s.27,1.08.81,1.36c.54.29,1.24.43,2.08.43.42,0,.81-.04,1.16-.11.35-.07.66-.18.93-.33.27-.15.48-.33.62-.56.15-.23.22-.49.22-.8s-.08-.58-.23-.81c-.15-.23-.37-.42-.63-.57s-.58-.26-.94-.33-.74-.11-1.13-.11Zm7.06,5.22v-10.48h2.11v4.42l2.39-.82v-3.59h2.11v10.48h-2.11v-5.14l-2.39.82v4.31h-2.11Z"/>
      <path class="cls-3" d="m588.7,271.8h-2.11v-8.81l-3.23,1.14c-.07,1.35-.28,2.51-.61,3.48-.34.97-.77,1.76-1.29,2.39-.52.63-1.11,1.08-1.76,1.37s-1.33.43-2.02.43c-.76,0-1.48-.16-2.17-.49s-1.29-.83-1.82-1.53-.95-1.59-1.26-2.68c-.31-1.09-.46-2.4-.46-3.92s.15-2.83.46-3.91c.31-1.08.73-1.98,1.26-2.67s1.13-1.21,1.82-1.54,1.41-.5,2.17-.5c.7,0,1.39.15,2.05.46.66.3,1.25.77,1.77,1.42.52.64.95,1.46,1.28,2.45.33.99.52,2.19.58,3.58l3.23-1.14v-6.97h2.11v17.46Zm-14.62-8.62c0,1.28.09,2.36.29,3.24.19.88.45,1.59.77,2.12.32.54.7.92,1.14,1.16.44.24.9.36,1.4.36s.94-.12,1.37-.35.82-.62,1.14-1.16c.32-.54.58-1.25.77-2.13.19-.88.29-1.97.29-3.26s-.1-2.36-.29-3.23c-.19-.87-.45-1.58-.77-2.11-.32-.54-.71-.92-1.14-1.16s-.89-.36-1.37-.36-.96.12-1.4.36-.82.63-1.14,1.16c-.32.54-.58,1.24-.77,2.12s-.29,1.96-.29,3.24Z"/>
      <path class="cls-3" d="m591.55,270.07h3.42v-4.8c-.84-.54-1.49-1.21-1.93-2.02-.44-.81-.67-1.71-.67-2.69,0-.87.18-1.68.54-2.41.36-.73.87-1.37,1.53-1.9.66-.54,1.47-.96,2.41-1.26.94-.3,2.01-.45,3.19-.45s2.16.15,3.11.45c.94.3,1.75.72,2.43,1.26.68.54,1.2,1.17,1.58,1.9.38.73.57,1.54.57,2.41,0,.99-.23,1.88-.68,2.69-.45.81-1.1,1.48-1.94,2.02v4.8h3.44v1.73h-17.01v-1.73Zm8.5-5.22c.9,0,1.7-.12,2.39-.35s1.27-.54,1.74-.93c.47-.39.83-.84,1.08-1.36.25-.52.37-1.07.37-1.65s-.12-1.13-.37-1.65c-.25-.52-.61-.98-1.08-1.36-.47-.39-1.05-.7-1.74-.93s-1.49-.35-2.39-.35-1.7.12-2.39.35c-.69.23-1.27.54-1.74.93-.47.39-.83.84-1.07,1.36-.24.52-.36,1.07-.36,1.65s.12,1.13.36,1.65c.24.52.6.98,1.07,1.36s1.05.7,1.74.93c.69.23,1.49.35,2.39.35Zm0,1.73c-1.11,0-2.1-.13-2.96-.38v3.87h5.92v-3.87c-.89.25-1.87.38-2.96.38Z"/>
      <path class="cls-3" d="m614.01,271.93h-2.32v-2.26h2.32v2.26Z"/>
      <path class="cls-3" d="m620.04,271.93h-2.32v-2.26h2.32v2.26Z"/>
      <path class="cls-3" d="m626.06,271.93h-2.32v-2.26h2.32v2.26Z"/>
    </g>
  </g>
  <path class="cls-1" d="m458.04,145.48c4.11-6.73,14.51-9.39,23.22-5.95,3.5,1.38,6.36,3.63,8.11,6.38"/>
  <g>
    <circle class="cls-2" cx="499.76" cy="106.38" r="20.6"/>
    <path class="cls-3" d="m510.08,106.57c.39,4.62-5.29,10.2-10.37,10.09-.2,0-3.63-.11-4.2-1.82-.26-.77.18-1.55-.37-2.62-.37-.72-.93-1.09-1.12-1.21-1.2-.77-2.08-.17-2.99-.61-1.49-.72-1.67-3.54-1.68-3.83-.26-4.82,5.41-10.66,10.37-10.09,1.59.18,4.18,1.14,4.58,2.8.23.93-.35,1.6.19,2.43.48.75,1.55,1.14,2.43,1.12.63-.02.75-.23,1.12-.19,1.13.15,1.93,2.47,2.06,3.92Z"/>
  </g>
  <g>
    <circle class="cls-4" cx="450.24" cy="106.38" r="20.6"/>
    <path class="cls-3" d="m460.57,106.57c.39,4.62-5.29,10.2-10.37,10.09-.2,0-3.63-.11-4.2-1.82-.26-.77.18-1.55-.37-2.62-.37-.72-.93-1.09-1.12-1.21-1.2-.77-2.08-.17-2.99-.61-1.49-.72-1.67-3.54-1.68-3.83-.26-4.82,5.41-10.66,10.37-10.09,1.59.18,4.18,1.14,4.58,2.8.23.93-.35,1.6.19,2.43.48.75,1.55,1.14,2.43,1.12.63-.02.75-.23,1.12-.19,1.13.15,1.93,2.47,2.06,3.92Z"/>
  </g>
</svg>