<?xml version="1.0" encoding="UTF-8"?>
<svg id="_레이어_1" data-name="레이어 1" xmlns="http://www.w3.org/2000/svg" xmlns:xlink="http://www.w3.org/1999/xlink" viewBox="0 0 1200 630">
  <defs>
    <style>
      .cls-1 {
        fill: #fff;
        stroke: url(#_무제_그라디언트_2-2);
      }

      .cls-1, .cls-2 {
        stroke-miterlimit: 10;
        stroke-width: .3px;
      }

      .cls-2 {
        fill: url(#_무제_그라디언트_20);
        stroke: url(#_무제_그라디언트_2);
      }
    </style>
    <linearGradient id="_무제_그라디언트_20" data-name="무제 그라디언트 20" x1="44.44" y1="66.03" x2="1139.5" y2="556.77" gradientUnits="userSpaceOnUse">
      <stop offset="0" stop-color="#56477d"/>
      <stop offset=".22" stop-color="#594980"/>
      <stop offset=".4" stop-color="#63518a"/>
      <stop offset=".57" stop-color="#735e9c"/>
      <stop offset=".73" stop-color="#8b70b4"/>
      <stop offset=".88" stop-color="#a987d4"/>
      <stop offset="1" stop-color="#c59df1"/>
    </linearGradient>
    <linearGradient id="_무제_그라디언트_2" data-name="무제 그라디언트 2" x1="-.15" y1="315" x2="1200.15" y2="315" gradientUnits="userSpaceOnUse">
      <stop offset="0" stop-color="#56477d"/>
      <stop offset=".15" stop-color="#5e4d85"/>
      <stop offset=".39" stop-color="#745e9c"/>
      <stop offset=".68" stop-color="#987ac2"/>
      <stop offset="1" stop-color="#c59df1"/>
    </linearGradient>
    <linearGradient id="_무제_그라디언트_2-2" data-name="무제 그라디언트 2" x1="63.02" y1="317" x2="1136.98" y2="317" gradientTransform="translate(0 632) scale(1 -1)" xlink:href="#_무제_그라디언트_2"/>
  </defs>
  <rect class="cls-2" width="1200" height="630"/>
  <path class="cls-1" d="m474.45,363.25h35.45c20.3,0,30.45,6.91,30.45,20.89,0,10-3.53,17.65-10.59,23.24-7.06,5.59-17.06,8.38-29.86,8.38h-41.63c-15.15,0-26.92-3.24-35.16-9.56-8.24-6.33-12.36-15.45-12.36-27.36,0-7.65,3.09-18.68,9.27-33.24l56.34-131.95-42.36,45.31c-10.15,11.03-19.71,16.47-28.68,16.47-11.77,0-19.56-8.09-22.95-24.27l-6.18-27.21-53.54,131.95c-18.39,45.31-32.51,76.05-42.07,92.38-9.71,16.33-22.06,30.45-37.51,42.36-22.21,17.21-47.66,25.89-76.49,25.89-30.74,0-55.6-9.71-74.73-28.98-19.12-19.42-28.68-44.57-28.68-75.75,0-40.75,15-76.64,45.16-107.67,16.18-16.47,36.48-29.86,60.75-40.01,24.27-10.15,48.1-15.3,71.64-15.3,11.91,0,21.62,2.5,28.68,7.65,7.21,5.15,10.74,11.91,10.74,20.45,0,8.97-3.82,16.18-11.33,21.77-4.41,3.24-12.8,5.44-25.45,6.62-29.13,2.65-52.51,9.27-70.31,20.01-14.71,8.97-26.48,20.59-35.16,34.86-8.68,14.27-13.09,29.27-13.09,44.86,0,16.62,4.27,29.71,12.65,39.27,8.38,9.56,20.15,14.42,34.86,14.42,17.65,0,33.1-7.5,46.19-22.65,13.09-15.15,27.36-41.78,43.1-80.17l87.08-214.17c7.65-18.83,17.8-28.24,30.74-28.24,8.24,0,14.71,2.65,19.42,7.94,4.71,5.3,8.83,14.42,12.36,27.65l13.39,50.45,65.75-64.72c14.42-14.12,27.95-21.33,40.6-21.33,8.83,0,16.18,2.65,22.21,7.94,6.03,5.3,9.12,11.77,9.12,19.42,0,4.85-1.18,10.15-3.53,15.74l-5.3,12.21-78.99,194.46Zm191.67-118.41c21.18,0,38.54,6.77,52.22,20.15,13.68,13.39,20.45,30.6,20.45,51.34,0,15.59-3.53,31.18-10.74,46.63-7.21,15.45-16.47,27.65-27.8,36.92-7.65,6.03-15.45,10.15-23.54,12.36-8.09,2.21-19.42,3.38-34.13,3.38-23.83,0-39.86-2.79-48.25-8.53-19.56-13.39-29.42-33.24-29.42-59.57,0-27.8,10-51.78,30.01-72.08s43.83-30.6,71.19-30.6Zm-5.3,46.78c-10.89,0-20.74,5.3-29.57,16.03-8.97,10.59-13.39,22.51-13.39,35.3,0,16.92,9.56,25.45,28.54,25.45,11.03,0,19.71-3.38,25.59-10.3,10-11.33,14.86-24.12,14.86-38.54,0-8.38-2.35-15-7.21-20.15-4.85-5.3-11.03-7.8-18.83-7.8Zm240.21,76.2h25.01c18.53,0,27.8,6.47,27.8,19.56,0,8.97-3.24,15.89-9.86,20.89-6.62,5-15.59,7.5-27.21,7.5h-29.57c-11.33,0-19.71-4.71-25.01-13.97-9.41,9.41-19.42,13.97-30.01,13.97h-27.8c-16.18,0-29.13-5.59-38.83-16.62s-14.56-25.89-14.56-44.28c0-28.24,9.56-53.54,28.83-76.05,19.27-22.51,40.75-33.69,64.72-33.69,17.65,0,31.77,6.33,42.36,19.12l48.84-119.88c8.38-20.45,20.01-30.74,34.86-30.74,6.33,0,11.62,2.06,16.03,6.03s6.62,8.97,6.62,14.86c0,4.56-1.03,9.71-3.24,15.3l-2.65,5.88-86.35,212.11Zm-80.17,1.18h8.38c10.15,0,16.77-3.97,20.01-12.06l16.47-40.6c2.06-5,3.09-8.83,3.09-11.33,0-4.41-1.91-8.09-5.59-11.18s-8.38-4.56-13.97-4.56c-11.33,0-22.06,6.33-31.92,19.12-9.86,12.65-14.86,26.48-14.86,41.19-.15,12.8,6.03,19.42,18.39,19.42Zm243.3-124.15c21.18,0,38.54,6.77,52.22,20.15,13.68,13.39,20.45,30.6,20.45,51.34,0,15.59-3.53,31.18-10.74,46.63-7.21,15.45-16.47,27.65-27.8,36.92-7.65,6.03-15.45,10.15-23.54,12.36-8.09,2.21-19.42,3.38-34.13,3.38-23.83,0-39.86-2.79-48.25-8.53-19.56-13.39-29.42-33.24-29.42-59.57,0-27.8,10-51.78,30.01-72.08,20.15-20.45,43.83-30.6,71.19-30.6Zm-5.3,46.78c-10.89,0-20.74,5.3-29.57,16.03-8.83,10.74-13.39,22.51-13.39,35.3,0,16.92,9.56,25.45,28.54,25.45,11.03,0,19.71-3.38,25.59-10.3,10-11.33,14.86-24.12,14.86-38.54,0-8.38-2.35-15-7.21-20.15-4.85-5.3-11.03-7.8-18.83-7.8Z"/>
</svg>